<svg id="구성_요소_2" data-name="구성 요소 2" xmlns="http://www.w3.org/2000/svg" xmlns:xlink="http://www.w3.org/1999/xlink" width="31.828" height="28" viewBox="0 0 31.828 28">
  <defs>
    <filter id="Icon_material-people" x="0" y="0" width="29" height="28" filterUnits="userSpaceOnUse">
      <feOffset dx="1" dy="1" input="SourceAlpha"/>
      <feGaussianBlur result="blur"/>
      <feFlood flood-opacity="0.161"/>
      <feComposite operator="in" in2="blur"/>
      <feComposite in="SourceGraphic"/>
    </filter>
  </defs>
  <g transform="matrix(1, 0, 0, 1, 0, 0)" filter="url(#Icon_material-people)">
    <g id="Icon_material-people-2" data-name="Icon material-people" transform="translate(-1.5 -11.56)" fill="none">
      <path d="M15.5,23.886a6.059,6.059,0,0,0,5.98-6.163,5.992,5.992,0,1,0-11.98,0A6.075,6.075,0,0,0,15.5,23.886Zm0,2.337c-4.66,0-14,2.4-14,7.191v5.145h28V33.414C29.5,28.627,20.16,26.223,15.5,26.223Z" stroke="none"/>
      <path d="M 15.5 13.55907821655273 C 14.43869972229004 13.55907821655273 13.4400691986084 13.9844970703125 12.68808937072754 14.7569694519043 C 11.92193984985352 15.54398727416992 11.5 16.59716033935547 11.5 17.72249984741211 C 11.5 18.84783935546875 11.92193984985352 19.9010181427002 12.68808937072754 20.68803787231445 C 13.4400691986084 21.46050834655762 14.43869972229004 21.88592910766602 15.5 21.88592910766602 C 16.55830955505371 21.88592910766602 17.5522403717041 21.46168899536133 18.2987003326416 20.69134902954102 C 19.06047058105469 19.90520858764648 19.47999954223633 18.85084915161133 19.47999954223633 17.72249984741211 C 19.47999954223633 16.59415817260742 19.06047058105469 15.53979873657227 18.2987003326416 14.75365829467773 C 17.5522403717041 13.98331832885742 16.55830955505371 13.55907821655273 15.5 13.55907821655273 M 15.5 28.22340965270996 C 13.52238082885742 28.22340965270996 10.28573989868164 28.73361778259277 7.512899398803711 29.87344932556152 C 4.962650299072266 30.92177963256836 3.5 32.21228790283203 3.5 33.41405868530273 L 3.5 36.55913925170898 L 27.5 36.55913925170898 L 27.5 33.41405868530273 C 27.5 32.21228790283203 26.03734970092773 30.92177963256836 23.48710060119629 29.87344932556152 C 20.71426010131836 28.73361778259277 17.47761917114258 28.22340965270996 15.5 28.22340965270996 M 15.5 11.55907821655273 C 18.81999969482422 11.55907821655273 21.47999954223633 14.31208038330078 21.47999954223633 17.72249984741211 C 21.47999954223633 21.1329288482666 18.81999969482422 23.88592910766602 15.5 23.88592910766602 C 12.18000030517578 23.88592910766602 9.5 21.1329288482666 9.5 17.72249984741211 C 9.5 14.31208038330078 12.18000030517578 11.55907821655273 15.5 11.55907821655273 Z M 15.5 26.22340965270996 C 20.15999984741211 26.22340965270996 29.5 28.62713813781738 29.5 33.41405868530273 L 29.5 38.55913925170898 L 1.5 38.55913925170898 L 1.5 33.41405868530273 C 1.5 28.62713813781738 10.84000015258789 26.22340965270996 15.5 26.22340965270996 Z" stroke="none" fill="#1e1e1e"/>
    </g>
  </g>
  <g id="그룹_31" data-name="그룹 31" transform="translate(-394.501 -188)">
    <g id="그룹_29" data-name="그룹 29" transform="translate(0.6 5)">
      <line id="선_22" data-name="선 22" x2="11.729" transform="translate(411.5 199.636)" fill="none" stroke="#fff" stroke-linecap="round" stroke-width="5"/>
      <line id="선_23" data-name="선 23" y2="11.729" transform="translate(417.364 193.771)" fill="none" stroke="#fff" stroke-linecap="round" stroke-width="5"/>
    </g>
    <g id="그룹_30" data-name="그룹 30" transform="translate(0.6 5)">
      <line id="선_20" data-name="선 20" x2="11.729" transform="translate(411.5 199.636)" fill="none" stroke="#1e1e1e" stroke-linecap="round" stroke-width="2"/>
      <line id="선_21" data-name="선 21" y2="11.729" transform="translate(417.364 193.771)" fill="none" stroke="#1e1e1e" stroke-linecap="round" stroke-width="2"/>
    </g>
  </g>
</svg>
