<svg xmlns="http://www.w3.org/2000/svg" width="259.665" height="215.684" viewBox="0 0 259.665 215.684">
  <g id="그룹_98" data-name="그룹 98" transform="translate(0 0)">
    <g id="그룹_63" data-name="그룹 63" transform="translate(0 0)">
      <path id="패스_13" data-name="패스 13" d="M7.976,10.23,0,13.363l7.976,3.06s-1.731,26.033,22.041,27.9S60.886,22.183,60.886,22.183a24.2,24.2,0,0,1-9.154,3.96c-4.295.8-9.487-.267-13.625-1.44-6.064-1.719-9.574-7.445-8.09-14.473C30.811,6.474,27.679-1.926,16.18.4,9.093,1.835,7.976,10.23,7.976,10.23Z" transform="matrix(0.998, -0.07, 0.07, 0.998, 0, 151.35)" fill="#3b1c1c"/>
      <path id="패스_12" data-name="패스 12" d="M6316.774-1944.8l55.536,6.684s10.9-3.081,11.125-8.91c.927-24.194.317-91.136,1.161-131.418.358-17.053-4.346-30.932-2.339-34.507,7.9-14.073,13.817-1.608,10.4,3.217-2.966,4.183-.789,130.115-.158,163.507.1,5.161.158,8.112.158,8.112s.81,34.977-38.973,34.345S6316.774-1944.8,6316.774-1944.8Z" transform="translate(-6315.263 2119.449)" fill="#3b1c1c"/>
    </g>
    <g id="그룹_34" data-name="그룹 34" transform="translate(88.999 12.93)">
      <text id="Chick_Soup" data-name="Chick
Soup" transform="translate(169.666 67.092)" fill="#3b1c1c" font-size="70" font-family="Roboto-Bold, Roboto" font-weight="700" letter-spacing="-0.025em"><tspan x="-170.427" y="0">Chick</tspan><tspan x="-155.941" y="70">Soup</tspan></text>
    </g>
  </g>
</svg>
