<svg xmlns="http://www.w3.org/2000/svg" width="225.087" height="100.804" viewBox="0 0 225.087 100.804">
  <g id="그룹_99" data-name="그룹 99" opacity="0.85">
    <path id="패스_13" data-name="패스 13" d="M3.829,4.912,0,6.415,3.829,7.884S3,20.383,14.411,21.28s14.82-10.63,14.82-10.63a11.619,11.619,0,0,1-4.395,1.9,15.388,15.388,0,0,1-6.541-.691c-2.911-.825-4.6-3.574-3.884-6.948.381-1.8-1.123-5.836-6.643-4.719C4.366.881,3.829,4.912,3.829,4.912Z" transform="matrix(0.998, -0.07, 0.07, 0.998, 0, 69.418)" fill="#3b1c1c"/>
    <path id="패스_12" data-name="패스 12" d="M6316.751-2038.231l26.662,3.109s5.234-1.433,5.341-4.144c.444-11.251.152-42.383.557-61.116.172-7.93-2.087-14.385-1.123-16.047,3.793-6.545,6.633-.748,4.991,1.5-1.424,1.945-.379,60.51-.076,76.039.046,2.4.076,3.772.076,3.772s.388,16.266-18.71,15.972S6316.751-2038.231,6316.751-2038.231Z" transform="translate(-6316.025 2119.45)" fill="#3b1c1c"/>
    <g id="그룹_34" data-name="그룹 34" transform="translate(49.64 56.924)">
      <text id="Chick_Soup" data-name="Chick Soup" transform="translate(175.447 33.881)" fill="#3b1c1c" font-size="36" font-family="Roboto-Bold, Roboto" font-weight="700" letter-spacing="-0.025em"><tspan x="-175.011" y="0">Chick Soup</tspan></text>
    </g>
  </g>
</svg>
