<svg xmlns="http://www.w3.org/2000/svg" width="2033.32" height="1185.532" viewBox="0 0 2033.32 1185.532">
  <g id="그룹_143" data-name="그룹 143" transform="translate(-16 -131.788)">
    <g id="타원_32" data-name="타원 32" transform="translate(1404 699)" fill="none" stroke="#fff" stroke-width="25">
      <circle cx="82" cy="82" r="82" stroke="none"/>
      <circle cx="82" cy="82" r="69.5" fill="none"/>
    </g>
    <g id="타원_33" data-name="타원 33" transform="translate(1524 817)" fill="none" stroke="#00feb9" stroke-width="16">
      <circle cx="30" cy="30" r="30" stroke="none"/>
      <circle cx="30" cy="30" r="22" fill="none"/>
    </g>
    <g id="그룹_142" data-name="그룹 142">
      <g id="다각형_3" data-name="다각형 3" transform="translate(1577.68 437.68) rotate(45)" fill="none" opacity="0.1">
        <path d="M333.5,0,667,577H0Z" stroke="none"/>
        <path d="M 333.5 99.91717529296875 L 86.65057373046875 527 L 580.3494262695313 527 L 333.5 99.91717529296875 M 333.5 0 L 667 577 L 0 577 L 333.5 0 Z" stroke="none" fill="#5500fe"/>
      </g>
      <path id="패스_61" data-name="패스 61" d="M9838.625,1723.914l77.34-73.521v45.831l83.068-67.792" transform="translate(-8030.792 -2398.308) rotate(7)" fill="none" stroke="#25ddab" stroke-width="20"/>
      <path id="패스_63" data-name="패스 63" d="M10006.322,1877.26l-251.783-207.207" transform="translate(-9630 -1405.914)" fill="none" stroke="#fe00d4" stroke-width="15"/>
      <g id="타원_31" data-name="타원 31" transform="translate(16 444)" fill="none" stroke="#fff" stroke-width="15">
        <circle cx="37.5" cy="37.5" r="37.5" stroke="none"/>
        <circle cx="37.5" cy="37.5" r="30" fill="none"/>
      </g>
      <g id="다각형_4" data-name="다각형 4" transform="translate(621.872 918.05) rotate(60)" fill="none">
        <path d="M50,0l50,87H0Z" stroke="none"/>
        <path d="M 50 30.10333633422852 L 25.92145538330078 72 L 74.07854461669922 72 L 50 30.10333633422852 M 50 0 L 100 87 L 0 87 L 50 0 Z" stroke="none" fill="#6e00fe"/>
      </g>
      <path id="패스_64" data-name="패스 64" d="M11386.927,1449l66.529,39.85V1459.4l59.985,29.447V1459.4l67.619,29.447" transform="translate(-7674.001 -7593.088) rotate(39)" fill="none" stroke="#a100fe" stroke-width="15"/>
      <path id="패스_65" data-name="패스 65" d="M10926.748,2009.669s21.6-70.108,114.629-68.447,106.323-64.791,106.323-64.791" transform="translate(-9332.208 814.636) rotate(-13)" fill="none" stroke="#3b1c1c" stroke-width="17"/>
    </g>
  </g>
</svg>
