<svg id="Icon_ionic-ios-log-out" data-name="Icon ionic-ios-log-out" xmlns="http://www.w3.org/2000/svg" width="120.579" height="102.053" viewBox="0 0 120.579 102.053">
  <path id="패스_66" data-name="패스 66" d="M79.915,90.283a4.071,4.071,0,0,0-4.059,4.059,5.234,5.234,0,0,1-5.219,5.219H16.711a5.234,5.234,0,0,1-5.219-5.219V18.961a5.234,5.234,0,0,1,5.219-5.219H70.637a5.234,5.234,0,0,1,5.219,5.219,4.059,4.059,0,1,0,8.118,0A13.338,13.338,0,0,0,70.637,5.625H16.711A13.338,13.338,0,0,0,3.375,18.961v75.38a13.338,13.338,0,0,0,13.336,13.336H70.637A13.338,13.338,0,0,0,83.974,94.342,4.071,4.071,0,0,0,79.915,90.283Z" transform="translate(-3.375 -5.625)" fill="#fee100"/>
  <path id="패스_67" data-name="패스 67" d="M75.61,12.017a4.033,4.033,0,0,0-2.87-1.189,3.965,3.965,0,0,0-2.87,1.189,4.042,4.042,0,0,0,0,5.74l18.9,18.613H14.465a4.059,4.059,0,0,0,0,8.118H88.859L70.42,63.072a4.1,4.1,0,0,0,0,5.74l.029.029a4.193,4.193,0,0,0,2.841,1.131,3.917,3.917,0,0,0,2.87-1.189l23.948-23.89a5.7,5.7,0,0,0,0-8.466Z" transform="translate(18.586 10.626)" fill="#fee100"/>
</svg>
