<svg xmlns="http://www.w3.org/2000/svg" width="1925" height="1740" viewBox="0 0 1925 1740">
  <g id="그룹_102" data-name="그룹 102" transform="translate(-137 -117.862)">
    <rect id="사각형_16" data-name="사각형 16" width="1925" height="1740" transform="translate(137 117.862)" fill="#fff"/>
    <g id="그룹_100" data-name="그룹 100" transform="translate(327.016 350.242)">
      <g id="그룹_9" data-name="그룹 9">
        <g id="그룹_8" data-name="그룹 8">
          <path id="패스_7" data-name="패스 7" d="M1476.083,44.856H68.177A68.253,68.253,0,0,0,0,113.033V1250.355a68.254,68.254,0,0,0,68.177,68.177H1476.083a68.254,68.254,0,0,0,68.177-68.177V113.033A68.253,68.253,0,0,0,1476.083,44.856Zm0,1205.5-1407.9.045a.26.26,0,0,1,0-.045V113.033H1476.083Z" transform="translate(0 -44.856)"/>
        </g>
      </g>
      <g id="그룹_11" data-name="그룹 11" transform="translate(162.033 162.039)">
        <g id="그룹_10" data-name="그룹 10">
          <path id="패스_8" data-name="패스 8" d="M1239.825,98.58H87.81a34.092,34.092,0,0,0-34.088,34.088V886.1A34.089,34.089,0,0,0,87.81,920.183H1239.822a34.092,34.092,0,0,0,34.088-34.088V132.668A34.087,34.087,0,0,0,1239.825,98.58ZM121.9,166.757H1205.733V743.845L990.9,529.036a34.1,34.1,0,0,0-48.207,0L811.73,660,511.444,359.714a34.1,34.1,0,0,0-48.207,0L121.9,701.019V166.757ZM121.9,852V797.427l365.441-365.4L907.317,852Zm1083.841,0h-202v0l-143.8-143.8L966.8,601.345l231.1,231.072a34.036,34.036,0,0,0,7.833,5.839v13.75Z" transform="translate(-53.722 -98.58)"/>
        </g>
      </g>
      <g id="그룹_13" data-name="그룹 13" transform="translate(789.068 294.896)">
        <g id="그룹_12" data-name="그룹 12">
          <path id="패스_9" data-name="패스 9" d="M390.492,142.629A128.876,128.876,0,1,0,519.369,271.505,129.024,129.024,0,0,0,390.492,142.629Zm0,189.576a60.7,60.7,0,1,1,60.7-60.7A60.764,60.764,0,0,1,390.492,332.2Z" transform="translate(-261.616 -142.629)"/>
        </g>
      </g>
    </g>
  </g>
</svg>
