<svg id="그룹_7" data-name="그룹 7" xmlns="http://www.w3.org/2000/svg" width="106.467" height="110.714" viewBox="0 0 106.467 110.714">
  <path id="패스_5" data-name="패스 5" d="M90.876,71.571A52.781,52.781,0,0,0,70.647,58.376,32.364,32.364,0,0,0,84.009,32c0-17.647-13.806-32-30.776-32S22.458,14.357,22.458,32A32.364,32.364,0,0,0,35.821,58.376,52.781,52.781,0,0,0,15.592,71.571,56.127,56.127,0,0,0,0,110.714H8.318c0-25.755,20.149-46.708,44.916-46.708S98.15,84.96,98.15,110.714h8.318A56.128,56.128,0,0,0,90.876,71.571ZM53.234,55.357C40.85,55.357,30.776,44.881,30.776,32S40.85,8.65,53.234,8.65,75.692,19.126,75.692,32,65.617,55.357,53.234,55.357Z" transform="translate(0)" fill="#fee100"/>
</svg>
