<svg xmlns="http://www.w3.org/2000/svg" width="149.13" height="149.13" viewBox="0 0 149.13 149.13">
  <g id="그룹_101" data-name="그룹 101" transform="translate(-861 -580.319)">
    <g id="패스_6" data-name="패스 6" transform="translate(861 580.319)" fill="#fff">
      <path d="M 74.56497192382813 148.6299591064453 C 64.56605529785156 148.6299591064453 54.86647033691406 146.6717529296875 45.73569107055664 142.8097686767578 C 41.34715270996094 140.9535675048828 37.11435317993164 138.6560668945313 33.15489196777344 135.9811096191406 C 29.23291206359863 133.3314666748047 25.54485130310059 130.2885284423828 22.1931324005127 126.9368133544922 C 18.84141159057617 123.5851135253906 15.79847145080566 119.8970336914063 13.14885234832764 115.9750518798828 C 10.47389221191406 112.0155944824219 8.1763916015625 107.7827911376953 6.320191860198975 103.3942489624023 C 2.458211898803711 94.26347351074219 0.5000119209289551 84.56388854980469 0.5000119209289551 74.56497192382813 C 0.5000119209289551 65.84103393554688 2.020051956176758 57.25119018554688 5.017911911010742 49.03403091430664 C 7.803651809692383 41.39771270751953 11.83135223388672 34.30427169799805 16.98913192749023 27.95073127746582 C 22.11281204223633 21.63919258117676 28.21807098388672 16.22073173522949 35.13535308837891 11.845871925354 C 46.87075042724609 4.423351764678955 60.50529098510742 0.5000119209289551 74.56497192382813 0.5000119209289551 C 84.56388854980469 0.5000119209289551 94.26347351074219 2.458211898803711 103.3942489624023 6.320191860198975 C 107.7827911376953 8.1763916015625 112.0155944824219 10.47389221191406 115.9750518798828 13.14885234832764 C 119.8970336914063 15.79847145080566 123.5851135253906 18.84141159057617 126.9368133544922 22.1931324005127 C 130.2885284423828 25.54485130310059 133.3314666748047 29.23291206359863 135.9811096191406 33.15489196777344 C 138.6560668945313 37.11435317993164 140.9535675048828 41.34715270996094 142.8097686767578 45.73569107055664 C 146.6717529296875 54.86647033691406 148.6299591064453 64.56605529785156 148.6299591064453 74.56497192382813 C 148.6299591064453 84.56388854980469 146.6717529296875 94.26347351074219 142.8097686767578 103.3942489624023 C 140.9535675048828 107.7827911376953 138.6560668945313 112.0155944824219 135.9811096191406 115.9750518798828 C 133.3314666748047 119.8970336914063 130.2885284423828 123.5851135253906 126.9368133544922 126.9368133544922 C 123.5851135253906 130.2885284423828 119.8970336914063 133.3314666748047 115.9750518798828 135.9811096191406 C 112.0155944824219 138.6560668945313 107.7827911376953 140.9535675048828 103.3942489624023 142.8097686767578 C 94.26347351074219 146.6717529296875 84.56388854980469 148.6299591064453 74.56497192382813 148.6299591064453 Z" stroke="none"/>
      <path d="M 74.56497192382813 0.9999847412109375 C 60.60009002685547 0.9999847412109375 47.05796813964844 4.89654541015625 35.40261077880859 12.2684326171875 C 28.53128814697266 16.61421203613281 22.46671295166016 21.99651336669922 17.3773193359375 28.26583099365234 C 12.25459289550781 34.57621002197266 8.254318237304688 41.62129211425781 5.487625122070313 49.20541381835938 C 2.509857177734375 57.36745452880859 0.9999847412109375 65.89965057373047 0.9999847412109375 74.56497192382813 C 0.9999847412109375 84.49661254882813 2.94488525390625 94.13065338134766 6.780685424804688 103.1994705200195 C 8.624313354492188 107.5582885742188 10.90625 111.7624359130859 13.56315612792969 115.6951522827148 C 16.19497680664063 119.5907516479492 19.21745300292969 123.2540512084961 22.54666900634766 126.583251953125 C 25.87589263916016 129.9124755859375 29.53916931152344 132.9349670410156 33.43479156494141 135.5667877197266 C 37.36751556396484 138.2236785888672 41.5716552734375 140.5056304931641 45.93047332763672 142.3492584228516 C 54.99929046630859 146.1850280761719 64.63330841064453 148.1299285888672 74.56497192382813 148.1299285888672 C 84.49663543701172 148.1299285888672 94.13065338134766 146.1850280761719 103.1994705200195 142.3492584228516 C 107.5582885742188 140.5056304931641 111.7624359130859 138.2236785888672 115.6951522827148 135.5667877197266 C 119.5907516479492 132.9349670410156 123.2540512084961 129.9124755859375 126.583251953125 126.583251953125 C 129.9124755859375 123.2540512084961 132.9349670410156 119.5907516479492 135.5667877197266 115.6951522827148 C 138.2236785888672 111.7624359130859 140.5056304931641 107.5582885742188 142.3492584228516 103.1994705200195 C 146.1850280761719 94.13065338134766 148.1299285888672 84.49663543701172 148.1299285888672 74.56497192382813 C 148.1299285888672 64.63330841064453 146.1850280761719 54.99929046630859 142.3492584228516 45.93047332763672 C 140.5056304931641 41.5716552734375 138.2236785888672 37.36751556396484 135.5667877197266 33.43479156494141 C 132.9349670410156 29.53916931152344 129.9124755859375 25.87589263916016 126.583251953125 22.54666900634766 C 123.2540512084961 19.21745300292969 119.5907516479492 16.19497680664063 115.6951522827148 13.56315612792969 C 111.7624359130859 10.90625 107.5582885742188 8.624313354492188 103.1994705200195 6.780685424804688 C 94.13065338134766 2.94488525390625 84.49661254882813 0.9999847412109375 74.56497192382813 0.9999847412109375 M 74.56497192382813 -1.52587890625e-05 C 115.7460708618164 -1.52587890625e-05 149.1299285888672 33.38387298583984 149.1299285888672 74.56497192382813 C 149.1299285888672 115.7460708618164 115.7460708618164 149.1299285888672 74.56497192382813 149.1299285888672 C 33.38387298583984 149.1299285888672 -1.52587890625e-05 115.7460708618164 -1.52587890625e-05 74.56497192382813 C -1.52587890625e-05 65.58749389648438 1.586532592773438 56.98055267333984 4.548187255859375 48.8626708984375 C 10.20402526855469 33.35879516601563 20.92634582519531 20.24076843261719 34.86809539794922 11.42327880859375 C 46.24661254882813 4.226486206054688 59.91220855712891 -1.52587890625e-05 74.56497192382813 -1.52587890625e-05 Z" stroke="none" fill="#707070"/>
    </g>
    <g id="그룹_7" data-name="그룹 7" transform="translate(882.536 602.673)">
      <path id="패스_5" data-name="패스 5" d="M89.1,67.483A52,52,0,0,0,69.269,55.042a30.176,30.176,0,1,0-34.147,0A52.278,52.278,0,0,0,0,104.391H8.156a44.04,44.04,0,0,1,88.08,0h8.156A51.855,51.855,0,0,0,89.1,67.483ZM52.2,52.2a22.02,22.02,0,1,1,22.02-22.02A22.045,22.045,0,0,1,52.2,52.2Z" transform="translate(0)"/>
    </g>
  </g>
</svg>
