<svg id="Icon_ionic-ios-settings" data-name="Icon ionic-ios-settings" xmlns="http://www.w3.org/2000/svg" width="65.829" height="63.594" viewBox="0 0 65.829 63.594">
  <path id="Icon_ionic-ios-settings-2" data-name="Icon ionic-ios-settings" d="M64.895,36.289a8.2,8.2,0,0,1,5.434-7.633A31.829,31.829,0,0,0,66.266,19.2a8.843,8.843,0,0,1-3.446.712,8.636,8.636,0,0,1-5.983-2.384,7.981,7.981,0,0,1-1.749-9.106A34.135,34.135,0,0,0,45.317,4.5a8.574,8.574,0,0,1-15.806,0,34.241,34.241,0,0,0-9.789,3.924,7.958,7.958,0,0,1-1.749,9.106A8.7,8.7,0,0,1,8.546,19.2,32.527,32.527,0,0,0,4.5,28.673a8.081,8.081,0,0,1,.017,15.265A31.829,31.829,0,0,0,8.58,53.391a8.805,8.805,0,0,1,3.429-.7,8.636,8.636,0,0,1,5.983,2.384,7.983,7.983,0,0,1,1.749,9.09,34.44,34.44,0,0,0,9.789,3.924,8.559,8.559,0,0,1,15.771,0,34.24,34.24,0,0,0,9.789-3.924,7.988,7.988,0,0,1,1.749-9.09A8.576,8.576,0,0,1,62.82,52.7a8.743,8.743,0,0,1,3.429.7,32.015,32.015,0,0,0,4.063-9.454A8.233,8.233,0,0,1,64.895,36.289ZM37.569,49.517A13.482,13.482,0,0,1,23.854,36.272,13.482,13.482,0,0,1,37.569,23.027,13.482,13.482,0,0,1,51.283,36.272,13.482,13.482,0,0,1,37.569,49.517Z" transform="translate(-4.5 -4.5)" fill="#1e1e1e"/>
</svg>
