<svg xmlns="http://www.w3.org/2000/svg" width="2466.467" height="1103.768" viewBox="0 0 2466.467 1103.768">
  <g id="그룹_137" data-name="그룹 137" transform="matrix(0.966, 0.259, -0.259, 0.966, 644.438, -307.964)" opacity="0.75">
    <path id="패스_14" data-name="패스 14" d="M1720,0" transform="translate(100.5 255)" fill="none" stroke="#fae100" stroke-width="4"/>
    <g id="다각형_2" data-name="다각형 2" transform="matrix(0.94, -0.342, 0.342, 0.94, 1183.44, 138.462)" fill="none" opacity="0.1">
      <path d="M333.5,0,667,577H0Z" stroke="none"/>
      <path d="M 333.5 99.91717529296875 L 86.65057373046875 527 L 580.3494262695313 527 L 333.5 99.91717529296875 M 333.5 0 L 667 577 L 0 577 L 333.5 0 Z" stroke="none" fill="#5500fe"/>
    </g>
    <g id="패스_21" data-name="패스 21" transform="translate(153.22 709.736) rotate(52)" fill="none" opacity="0.2">
      <path d="M360.585,0,486.161,474.6,7.029,611.7-116.888,161.619Z" stroke="none"/>
      <path d="M 325.9348754882813 64.51544189453125 L -56.15390014648438 193.8479919433594 L 41.82968139648438 549.7353515625 L 425.288818359375 440.0148315429688 L 325.9348754882813 64.51544189453125 M 360.5852355957031 0 L 486.161376953125 474.6037292480469 L 7.02935791015625 611.699462890625 L -116.8876342773438 161.6189880371094 L 360.5852355957031 0 Z" stroke="none" fill="#fefe00"/>
    </g>
    <path id="패스_15" data-name="패스 15" d="M9838.625,1723.914l77.34-73.521v45.831l83.068-67.792" transform="translate(-7862.792 -2418.308) rotate(7)" fill="none" stroke="#25ddab" stroke-width="20" opacity="0.75"/>
    <path id="패스_16" data-name="패스 16" d="M9838.626,1750.828l99.141-94.244" transform="translate(-8127.35 4360.284) rotate(-30)" fill="none" stroke="#fee100" stroke-width="12"/>
    <path id="패스_17" data-name="패스 17" d="M10006.322,1877.26l-251.783-207.207" transform="translate(-9659.616 -1300.318)" fill="none" stroke="#fe4400" stroke-width="12" opacity="0.55"/>
    <g id="타원_8" data-name="타원 8" transform="translate(318.736 459.332)" fill="none" stroke="#fff" stroke-width="15">
      <circle cx="37.5" cy="37.5" r="37.5" stroke="none"/>
      <circle cx="37.5" cy="37.5" r="30" fill="none"/>
    </g>
    <g id="타원_9" data-name="타원 9" transform="translate(1432 192)" fill="none" stroke="#fff" stroke-width="25">
      <circle cx="82" cy="82" r="82" stroke="none"/>
      <circle cx="82" cy="82" r="69.5" fill="none"/>
    </g>
    <g id="타원_35" data-name="타원 35" transform="translate(732.254 263.65)" fill="none" stroke="#cbcbcb" stroke-width="25" opacity="0.5">
      <circle cx="127.5" cy="127.5" r="127.5" stroke="none"/>
      <circle cx="127.5" cy="127.5" r="115" fill="none"/>
    </g>
    <g id="다각형_1" data-name="다각형 1" transform="translate(389.169 214.55) rotate(60)" fill="none">
      <path d="M23,0,46,40H0Z" stroke="none"/>
      <path d="M 23 20.06135368347168 L 17.2852783203125 30 L 28.7147216796875 30 L 23 20.06135368347168 M 23 0 L 46 40 L 0 40 L 23 0 Z" stroke="none" fill="#6e00fe"/>
    </g>
    <g id="타원_10" data-name="타원 10" transform="translate(221.217 1121.414)" fill="none" stroke="#00feb9" stroke-width="16">
      <circle cx="30" cy="30" r="30" stroke="none"/>
      <circle cx="30" cy="30" r="22" fill="none"/>
    </g>
    <path id="패스_18" data-name="패스 18" d="M11386.927,1449l66.529,39.85V1459.4l59.985,29.447V1459.4l67.619,29.447" transform="matrix(0.966, -0.259, 0.259, 0.966, -10557.876, 1747.245)" fill="none" stroke="#a100fe" stroke-width="15"/>
    <path id="패스_19" data-name="패스 19" d="M10926.748,2009.669s21.6-70.108,114.629-68.447,106.323-64.791,106.323-64.791" transform="translate(-8434.105 7488.098) rotate(-45)" fill="none" stroke="#3b1c1c" stroke-width="17" opacity="0.68"/>
    <g id="그룹_99" data-name="그룹 99" transform="matrix(0.966, -0.259, 0.259, 0.966, 818.297, 1078.287)" opacity="0.85">
      <path id="패스_13" data-name="패스 13" d="M3.829,4.912,0,6.415,3.829,7.884S3,20.383,14.411,21.28s14.82-10.63,14.82-10.63a11.619,11.619,0,0,1-4.395,1.9,15.388,15.388,0,0,1-6.541-.691c-2.911-.825-4.6-3.574-3.884-6.948.381-1.8-1.123-5.836-6.643-4.719C4.366.881,3.829,4.912,3.829,4.912Z" transform="matrix(0.998, -0.07, 0.07, 0.998, 0, 69.418)" fill="#3b1c1c"/>
      <path id="패스_12" data-name="패스 12" d="M6316.751-2038.231l26.662,3.109s5.234-1.433,5.341-4.144c.444-11.251.152-42.383.557-61.116.172-7.93-2.087-14.385-1.123-16.047,3.793-6.545,6.633-.748,4.991,1.5-1.424,1.945-.379,60.51-.076,76.039.046,2.4.076,3.772.076,3.772s.388,16.266-18.71,15.972S6316.751-2038.231,6316.751-2038.231Z" transform="translate(-6316.025 2119.45)" fill="#3b1c1c"/>
      <g id="그룹_34" data-name="그룹 34" transform="translate(49.64 56.924)">
        <text id="Chick_Soup" data-name="Chick Soup" transform="translate(175.447 33.881)" fill="#3b1c1c" font-size="36" font-family="Roboto-Bold, Roboto" font-weight="700" letter-spacing="-0.025em"><tspan x="-175.011" y="0">Chick Soup</tspan></text>
      </g>
    </g>
  </g>
</svg>
