<svg xmlns="http://www.w3.org/2000/svg" width="60.984" height="61" viewBox="0 0 60.984 61">
  <path id="Icon_ionic-ios-settings" data-name="Icon ionic-ios-settings" d="M60.45,34.992a7.848,7.848,0,0,1,5.034-7.321A31.106,31.106,0,0,0,61.72,18.6a7.953,7.953,0,0,1-3.192.683A7.83,7.83,0,0,1,51.366,8.264,31.012,31.012,0,0,0,42.313,4.5a7.841,7.841,0,0,1-14.643,0A31.106,31.106,0,0,0,18.6,8.264,7.83,7.83,0,0,1,11.44,19.285,7.694,7.694,0,0,1,8.248,18.6,31.793,31.793,0,0,0,4.5,27.687a7.839,7.839,0,0,1,5.034,7.321,7.856,7.856,0,0,1-5.018,7.321A31.106,31.106,0,0,0,8.28,51.4,7.833,7.833,0,0,1,18.618,61.736,31.287,31.287,0,0,0,27.687,65.5a7.826,7.826,0,0,1,14.611,0,31.106,31.106,0,0,0,9.068-3.764A7.841,7.841,0,0,1,61.7,51.4a31.287,31.287,0,0,0,3.764-9.068A7.885,7.885,0,0,1,60.45,34.992ZM35.135,47.681A12.705,12.705,0,1,1,47.84,34.976,12.7,12.7,0,0,1,35.135,47.681Z" transform="translate(-4.5 -4.5)" fill="#fff"/>
</svg>
