<svg id="Icon_awesome-star" data-name="Icon awesome-star" xmlns="http://www.w3.org/2000/svg" width="28" height="26.8" viewBox="0 0 28 26.8">
  <path id="Icon_awesome-star-2" data-name="Icon awesome-star" d="M13.939.931,10.522,7.861,2.875,8.975a1.676,1.676,0,0,0-.926,2.858l5.532,5.391L6.173,24.839A1.674,1.674,0,0,0,8.6,26.6l6.84-3.6,6.84,3.6a1.675,1.675,0,0,0,2.428-1.764L23.4,17.224l5.532-5.391a1.676,1.676,0,0,0-.926-2.858L20.361,7.861,16.943.931a1.676,1.676,0,0,0-3,0Z" transform="translate(-1.441 0.001)" fill="#fae100"/>
</svg>
