<svg id="Icon_awesome-star" data-name="Icon awesome-star" xmlns="http://www.w3.org/2000/svg" width="28" height="26.8" viewBox="0 0 28 26.8">
  <g id="Icon_awesome-star-2" data-name="Icon awesome-star" transform="translate(-1.441 0.001)" fill="none">
    <path d="M13.939.931,10.522,7.861,2.875,8.975a1.676,1.676,0,0,0-.926,2.858l5.532,5.391L6.173,24.839A1.674,1.674,0,0,0,8.6,26.6l6.84-3.6,6.84,3.6a1.675,1.675,0,0,0,2.428-1.764L23.4,17.224l5.532-5.391a1.676,1.676,0,0,0-.926-2.858L20.361,7.861,16.943.931a1.676,1.676,0,0,0-3,0Z" stroke="none"/>
    <path d="M 15.44137668609619 2.407350540161133 L 12.31545257568359 8.745351791381836 L 11.85048294067383 9.688121795654297 L 10.81028366088867 9.839771270751953 L 3.815767288208008 10.85950660705566 L 8.876811981201172 15.79128170013428 L 9.630283355712891 16.5255012512207 L 9.452133178710938 17.56235122680664 L 8.255916595458984 24.52427291870117 L 14.51083374023438 21.23649215698242 L 15.44137287139893 20.74737167358398 L 16.37191390991211 21.23649215698242 L 22.6268196105957 24.52426528930664 L 21.43061256408691 17.56235122680664 L 21.25246429443359 16.5255012512207 L 22.00593185424805 15.79128170013428 L 27.06698036193848 10.85951232910156 L 20.07246398925781 9.839771270751953 L 19.03226280212402 9.688121795654297 L 18.56728363037109 8.745351791381836 L 15.44137668609619 2.407350540161133 M 15.43768119812012 -0.0008907318115234375 C 16.03679275512695 -0.000823974609375 16.63632965087891 0.3119068145751953 16.94343185424805 0.9313621520996094 L 20.36099243164063 7.860691070556641 L 28.00733184814453 8.975461959838867 C 29.37854385375977 9.174331665039063 29.92807197570801 10.86480140686035 28.93368339538574 11.83302211761475 L 23.4017333984375 17.22367095947266 L 24.71014404296875 24.8386116027832 C 24.89641952514648 25.92731285095215 24.02851867675781 26.79657936096191 23.05664443969727 26.79657936096191 C 22.79978179931641 26.79657936096191 22.53555679321289 26.73581695556641 22.2817325592041 26.60234069824219 L 15.44137287139893 23.00683212280273 L 8.60101318359375 26.60234069824219 C 8.34644889831543 26.7373046875 8.081630706787109 26.79863929748535 7.824062347412109 26.79863929748535 C 6.85310173034668 26.79863929748535 5.986469268798828 25.92648124694824 6.172603607177734 24.8386116027832 L 7.481012344360352 17.22367095947266 L 1.949062347412109 11.83302211761475 C 0.9546737670898438 10.86480140686035 1.504203796386719 9.174331665039063 2.875411987304688 8.975461959838867 L 10.52175331115723 7.860691070556641 L 13.93932342529297 0.9313621520996094 C 14.24716567993164 0.3078498840332031 14.84221458435059 -0.0009555816650390625 15.43768119812012 -0.0008907318115234375 Z" stroke="none" fill="#1e1e1e"/>
  </g>
</svg>
