<svg xmlns="http://www.w3.org/2000/svg" width="200" height="200" viewBox="0 0 200 200">
  <g id="그룹_101" data-name="그룹 101" transform="translate(-861 -580.319)">
    <g id="패스_6" data-name="패스 6" transform="translate(861 580.319)" fill="#fff">
      <path d="M 100 199.5 C 93.24872589111328 199.5 86.50184631347656 198.8198699951172 79.94674682617188 197.4785003662109 C 73.55850219726563 196.1712799072266 67.27482604980469 194.2207183837891 61.2702751159668 191.6809997558594 C 55.37459945678711 189.1873474121094 49.68817520141602 186.1008453369141 44.36894989013672 182.5072479248047 C 39.10015106201172 178.9477233886719 34.14557647705078 174.8598175048828 29.64287567138672 170.3571319580078 C 25.14017486572266 165.8544311523438 21.05227470397949 160.8998565673828 17.49275016784668 155.6310424804688 C 13.89914989471436 150.3118286132813 10.81264972686768 144.6253967285156 8.319000244140625 138.7297210693359 C 5.779274940490723 132.7251739501953 3.828725099563599 126.4414978027344 2.521500110626221 120.0532531738281 C 1.180124998092651 113.4981536865234 0.5 106.7512741088867 0.5 100 C 0.5 88.28022766113281 2.542025089263916 76.7406005859375 6.569349765777588 65.70169830322266 C 10.31184959411621 55.44272613525391 15.72280025482178 45.91310119628906 22.65189933776855 37.3775749206543 C 29.53502464294434 28.8986759185791 37.73675155639648 21.61957550048828 47.02927398681641 15.74247455596924 C 62.79512405395508 5.770750045776367 81.11209869384766 0.5 100 0.5 C 106.7512741088867 0.5 113.4981536865234 1.180124998092651 120.0532531738281 2.521500110626221 C 126.4414978027344 3.828725099563599 132.7251739501953 5.779274940490723 138.7297210693359 8.319000244140625 C 144.6253967285156 10.81264972686768 150.3118286132813 13.89914989471436 155.6310424804688 17.49275016784668 C 160.8998565673828 21.05227470397949 165.8544311523438 25.14017486572266 170.3571319580078 29.64287567138672 C 174.8598175048828 34.14557647705078 178.9477233886719 39.10015106201172 182.5072479248047 44.36894989013672 C 186.1008453369141 49.68817520141602 189.1873474121094 55.37459945678711 191.6809997558594 61.2702751159668 C 194.2207183837891 67.27482604980469 196.1712799072266 73.55850219726563 197.4785003662109 79.94674682617188 C 198.8198699951172 86.50184631347656 199.5 93.24872589111328 199.5 100 C 199.5 106.7512741088867 198.8198699951172 113.4981536865234 197.4785003662109 120.0532531738281 C 196.1712799072266 126.4414978027344 194.2207183837891 132.7251739501953 191.6809997558594 138.7297210693359 C 189.1873474121094 144.6253967285156 186.1008453369141 150.3118286132813 182.5072479248047 155.6310424804688 C 178.9477233886719 160.8998565673828 174.8598175048828 165.8544311523438 170.3571319580078 170.3571319580078 C 165.8544311523438 174.8598175048828 160.8998565673828 178.9477233886719 155.6310424804688 182.5072479248047 C 150.3118286132813 186.1008453369141 144.6253967285156 189.1873474121094 138.7297210693359 191.6809997558594 C 132.7251739501953 194.2207183837891 126.4414978027344 196.1712799072266 120.0532531738281 197.4785003662109 C 113.4981536865234 198.8198699951172 106.7512741088867 199.5 100 199.5 Z" stroke="none"/>
      <path d="M 100 1 C 81.20687103271484 1 62.98231506347656 6.243972778320313 47.29655456542969 16.16505432128906 C 38.05000305175781 22.01307678222656 29.88894653320313 29.25602722167969 23.04010009765625 37.69268798828125 C 16.14605712890625 46.18505859375 10.76252746582031 55.66632080078125 7.039047241210938 65.87307739257813 C 3.031845092773438 76.85689544677734 1 88.3388671875 1 100 C 1 106.7176818847656 1.676712036132813 113.4308395385742 3.011337280273438 119.9530029296875 C 4.31195068359375 126.3089218139648 6.25262451171875 132.560791015625 8.779495239257813 138.5349426269531 C 11.26057434082031 144.4008941650391 14.33152770996094 150.0586853027344 17.90705871582031 155.3511352539063 C 21.44876098632813 160.5935821533203 25.5162353515625 165.5233764648438 29.99641418457031 170.0035705566406 C 34.47663879394531 174.4837646484375 39.40641784667969 178.5512390136719 44.64886474609375 182.0929412841797 C 49.94131469726563 185.6684722900391 55.59910583496094 188.7394256591797 61.46505737304688 191.2205047607422 C 67.439208984375 193.7473754882813 73.69107818603516 195.6880493164063 80.0469970703125 196.9886627197266 C 86.56916046142578 198.3232879638672 93.28231811523438 199 100 199 C 106.7176818847656 199 113.4308395385742 198.3232879638672 119.9530029296875 196.9886627197266 C 126.3089218139648 195.6880493164063 132.560791015625 193.7473754882813 138.5349426269531 191.2205047607422 C 144.4008941650391 188.7394256591797 150.0586853027344 185.6684722900391 155.3511352539063 182.0929412841797 C 160.5935821533203 178.5512390136719 165.5233764648438 174.4837646484375 170.0035705566406 170.0035705566406 C 174.4837646484375 165.5233764648438 178.5512390136719 160.5935821533203 182.0929412841797 155.3511352539063 C 185.6684722900391 150.0586853027344 188.7394256591797 144.4008941650391 191.2205047607422 138.5349426269531 C 193.7473754882813 132.560791015625 195.6880493164063 126.3089218139648 196.9886627197266 119.9530029296875 C 198.3232879638672 113.4308395385742 199 106.7176818847656 199 100 C 199 93.28231811523438 198.3232879638672 86.56916046142578 196.9886627197266 80.0469970703125 C 195.6880493164063 73.69107818603516 193.7473754882813 67.439208984375 191.2205047607422 61.46505737304688 C 188.7394256591797 55.59910583496094 185.6684722900391 49.94131469726563 182.0929412841797 44.64886474609375 C 178.5512390136719 39.40641784667969 174.4837646484375 34.47663879394531 170.0035705566406 29.99641418457031 C 165.5233764648438 25.5162353515625 160.5935821533203 21.44876098632813 155.3511352539063 17.90705871582031 C 150.0586853027344 14.33152770996094 144.4008941650391 11.26057434082031 138.5349426269531 8.779495239257813 C 132.560791015625 6.25262451171875 126.3089218139648 4.31195068359375 119.9530029296875 3.011337280273438 C 113.4308395385742 1.676712036132813 106.7176818847656 1 100 1 M 100 0 C 155.2284698486328 0 200 44.77153015136719 200 100 C 200 155.2284698486328 155.2284698486328 200 100 200 C 44.77153015136719 200 0 155.2284698486328 0 100 C 0 87.96018218994141 2.127731323242188 76.41731262207031 6.099624633789063 65.53034973144531 C 13.68476867675781 44.73789978027344 28.06460571289063 27.14515686035156 46.76202392578125 15.31990051269531 C 62.02192687988281 5.668182373046875 80.34902954101563 0 100 0 Z" stroke="none" fill="#707070"/>
    </g>
    <g id="그룹_7" data-name="그룹 7" transform="translate(889.882 610.299)">
      <path id="패스_5" data-name="패스 5" d="M119.5,90.5A69.731,69.731,0,0,0,92.9,73.818a40.469,40.469,0,1,0-45.794,0A70.111,70.111,0,0,0,0,140H10.937a59.063,59.063,0,0,1,118.125,0H140A69.544,69.544,0,0,0,119.5,90.5ZM70,70A29.531,29.531,0,1,1,99.531,40.469,29.565,29.565,0,0,1,70,70Z" transform="translate(0)"/>
    </g>
  </g>
</svg>
